<svg width="328" height="136" viewBox="0 0 328 136" fill="none" xmlns="http://www.w3.org/2000/svg">
<path d="M60.8032 51.696H67.7152C69.0112 51.696 69.6592 51.048 69.6592 49.752V6.768C69.6592 6.096 69.5152 5.616 69.2272 5.328C68.9392 4.992 68.4352 4.824 67.7152 4.824H65.1232C62.0992 4.824 59.4832 6.36 57.2752 9.432C55.8832 11.4 54.9472 13.872 54.4672 16.848C53.9872 19.776 53.7472 21.936 53.7472 23.328H51.7312L52.3072 2.736H93.6352L94.2112 23.328H92.1952C92.1952 21.936 91.9552 19.776 91.4752 16.848C90.9952 13.872 90.0592 11.4 88.6672 9.432C86.4592 6.36 83.8432 4.824 80.8192 4.824H78.2272C77.5072 4.824 77.0032 4.992 76.7152 5.328C76.4272 5.616 76.2832 6.096 76.2832 6.768V49.752C76.2832 51.048 76.9312 51.696 78.2272 51.696H85.1392V54H60.8032V51.696ZM104.57 51.696H109.754C111.05 51.696 111.698 51.048 111.698 49.752V6.984C111.698 6.312 111.53 5.832 111.194 5.544C110.906 5.208 110.426 5.04 109.754 5.04H104.57V2.736H144.746L145.034 20.736H143.234C143.234 19.776 143.018 18.144 142.586 15.84C142.202 13.536 141.41 11.472 140.21 9.648C138.194 6.576 135.362 5.04 131.714 5.04H120.266C119.594 5.04 119.09 5.208 118.754 5.544C118.466 5.832 118.322 6.312 118.322 6.984V26.352H123.866C126.314 26.352 128.066 25.104 129.122 22.608C130.226 20.112 130.778 17.448 130.778 14.616H132.65V40.392H130.778C130.778 37.56 130.226 34.896 129.122 32.4C128.066 29.904 126.314 28.656 123.866 28.656H118.322V49.752C118.322 51.048 118.97 51.696 120.266 51.696H131.786C133.178 51.696 134.594 51.384 136.034 50.76C137.474 50.136 138.698 49.176 139.706 47.88C140.666 46.536 141.458 44.856 142.082 42.84C142.706 40.824 143.138 39 143.378 37.368C143.618 35.688 143.762 34.608 143.81 34.128H145.61L144.746 54H104.57V51.696ZM178.329 55.296C173.865 55.296 170.025 54 166.809 51.408C163.593 48.816 161.145 45.432 159.465 41.256C157.833 37.032 157.017 32.592 157.017 27.936C157.017 23.088 157.833 18.648 159.465 14.616C161.097 10.584 163.425 7.392 166.449 5.04C169.473 2.64 173.001 1.44 177.033 1.44C179.145 1.44 181.137 1.92 183.009 2.88C184.881 3.84 186.417 4.872 187.617 5.976C188.769 7.032 189.537 7.56 189.921 7.56C190.305 7.56 190.569 7.44 190.713 7.2C190.905 6.96 191.097 6.576 191.289 6.048L192.657 2.016H194.457L194.745 24.336H192.729C191.673 19.776 190.305 15.96 188.625 12.888C186.945 9.768 185.097 7.464 183.081 5.976C181.113 4.488 179.145 3.744 177.177 3.744C172.617 3.744 169.377 5.808 167.457 9.936C165.585 14.064 164.649 20.064 164.649 27.936C164.649 36.048 165.633 42.264 167.601 46.584C169.569 50.856 173.145 52.992 178.329 52.992C182.937 52.992 186.441 51.288 188.841 47.88C191.289 44.424 192.681 40.248 193.017 35.352H195.609C195.465 38.184 194.865 41.112 193.809 44.136C192.801 47.16 191.025 49.776 188.481 51.984C185.937 54.192 182.553 55.296 178.329 55.296ZM206.835 51.696H212.019C213.315 51.696 213.963 51.048 213.963 49.752V6.984C213.963 5.688 213.315 5.04 212.019 5.04H206.835V2.736H227.715V5.04H222.531C221.235 5.04 220.587 5.688 220.587 6.984V25.92H242.331V6.984C242.331 5.688 241.683 5.04 240.387 5.04H235.203V2.736H256.083V5.04H250.899C249.603 5.04 248.955 5.688 248.955 6.984V49.752C248.955 51.048 249.603 51.696 250.899 51.696H256.083V54H235.203V51.696H240.387C241.683 51.696 242.331 51.048 242.331 49.752V28.224H220.587V49.752C220.587 51.048 221.235 51.696 222.531 51.696H227.715V54H206.835V51.696ZM12.3126 89.216H11.8806V125.936C11.8806 127.712 12.2886 129.128 13.1046 130.184C13.9686 131.192 15.0726 131.696 16.4166 131.696H19.0086V134H1.8726V131.696H4.4646C5.8086 131.696 6.8886 131.192 7.7046 130.184C8.5686 129.128 9.0006 127.712 9.0006 125.936V86.984C9.0006 86.312 8.8326 85.832 8.4966 85.544C8.2086 85.208 7.7286 85.04 7.0566 85.04H1.8726V82.736H17.1366L28.8726 122.408L39.8166 82.736H54.7206V85.04H49.5366C48.8646 85.04 48.3606 85.208 48.0246 85.544C47.7366 85.832 47.5926 86.312 47.5926 86.984V129.752C47.5926 131.048 48.2406 131.696 49.5366 131.696H54.7206V134H33.8406V131.696H39.0246C40.3206 131.696 40.9686 131.048 40.9686 129.752V87.272L27.7926 134.864H26.0646L12.3126 89.216ZM63.2087 131.696H65.8727C68.7047 131.696 70.7687 129.944 72.0647 126.44L87.5447 82.736H89.3447L104.969 128.528C105.449 129.728 106.025 130.568 106.697 131.048C107.369 131.48 108.233 131.696 109.289 131.696H113.321V134H91.0007V131.696H95.7527C96.4727 131.696 97.0727 131.528 97.5527 131.192C98.0327 130.808 98.2727 130.376 98.2727 129.896C98.2727 129.272 98.1767 128.744 97.9847 128.312L94.6007 118.736H77.7527L76.0247 123.56C75.3527 125.48 75.0167 126.872 75.0167 127.736C75.0167 128.792 75.2807 129.728 75.8087 130.544C76.3367 131.312 77.2487 131.696 78.5447 131.696H82.9367V134H63.2087V131.696ZM78.5447 116.432H93.8087L86.3207 94.472L78.5447 116.432ZM158.801 134.864C157.217 134.864 155.873 134.6 154.769 134.072C153.713 133.544 152.873 132.68 152.249 131.48C150.953 128.984 150.257 124.736 150.161 118.736C150.113 115.52 149.537 112.856 148.433 110.744C147.329 108.584 145.553 107.504 143.105 107.504H135.257V129.752C135.257 130.424 135.401 130.928 135.689 131.264C135.977 131.552 136.481 131.696 137.201 131.696H143.609V134H121.505V131.696H126.689C127.985 131.696 128.633 131.048 128.633 129.752V86.984C128.633 86.312 128.465 85.832 128.129 85.544C127.841 85.208 127.361 85.04 126.689 85.04H121.505V82.736H145.121C149.777 82.736 153.593 83.624 156.569 85.4C159.545 87.176 161.033 90.128 161.033 94.256C161.033 97.808 159.689 100.664 157.001 102.824C154.361 104.984 151.169 106.256 147.425 106.64V106.928C150.161 107.456 152.393 108.728 154.121 110.744C155.897 112.712 157.073 116.096 157.649 120.896C157.985 123.632 158.273 125.624 158.513 126.872C158.801 128.12 159.137 129.008 159.521 129.536C159.953 130.016 160.577 130.256 161.393 130.256C163.457 130.256 164.489 127.664 164.489 122.48H166.289C166.289 125.6 165.833 128.456 164.921 131.048C164.009 133.592 161.969 134.864 158.801 134.864ZM142.241 105.2C146.273 105.2 149.129 104.24 150.809 102.32C152.537 100.352 153.401 97.664 153.401 94.256C153.401 91.328 152.609 89.072 151.025 87.488C149.489 85.856 147.377 85.04 144.689 85.04H137.201C136.529 85.04 136.025 85.208 135.689 85.544C135.401 85.832 135.257 86.312 135.257 86.984V105.2H142.241ZM175.204 131.696H180.388C181.684 131.696 182.332 131.048 182.332 129.752V86.984C182.332 86.312 182.164 85.832 181.828 85.544C181.54 85.208 181.06 85.04 180.388 85.04H175.204V82.736H195.724V85.04H190.9C190.228 85.04 189.724 85.208 189.388 85.544C189.1 85.832 188.956 86.312 188.956 86.984V109.304L205.516 92.384C206.14 91.712 206.596 91.04 206.884 90.368C207.172 89.696 207.316 88.928 207.316 88.064C207.316 87.2 207.004 86.48 206.38 85.904C205.756 85.328 204.988 85.04 204.076 85.04H202.132V82.736H221.14V85.04H218.26C216.676 85.04 214.516 86.456 211.78 89.288L199.684 101.528L214.372 128.528C214.996 129.728 215.692 130.568 216.46 131.048C217.228 131.48 218.332 131.696 219.772 131.696H222.148V134H200.404V131.696H205.228C205.756 131.696 206.212 131.552 206.596 131.264C206.98 130.928 207.172 130.568 207.172 130.184C207.172 129.896 207.124 129.584 207.028 129.248C206.932 128.864 206.812 128.576 206.668 128.384L194.932 106.352L188.956 112.4V129.752C188.956 131.048 189.604 131.696 190.9 131.696H195.724V134H175.204V131.696ZM231.786 131.696H236.97C238.266 131.696 238.914 131.048 238.914 129.752V86.984C238.914 86.312 238.746 85.832 238.41 85.544C238.122 85.208 237.642 85.04 236.97 85.04H231.786V82.736H271.962L272.25 100.736H270.45C270.45 99.776 270.234 98.144 269.802 95.84C269.418 93.536 268.626 91.472 267.426 89.648C265.41 86.576 262.578 85.04 258.93 85.04H247.482C246.81 85.04 246.306 85.208 245.97 85.544C245.682 85.832 245.538 86.312 245.538 86.984V106.352H251.082C253.53 106.352 255.282 105.104 256.338 102.608C257.442 100.112 257.994 97.448 257.994 94.616H259.866V120.392H257.994C257.994 117.56 257.442 114.896 256.338 112.4C255.282 109.904 253.53 108.656 251.082 108.656H245.538V129.752C245.538 131.048 246.186 131.696 247.482 131.696H259.002C260.394 131.696 261.81 131.384 263.25 130.76C264.69 130.136 265.914 129.176 266.922 127.88C267.882 126.536 268.674 124.856 269.298 122.84C269.922 120.824 270.354 119 270.594 117.368C270.834 115.688 270.978 114.608 271.026 114.128H272.826L271.962 134H231.786V131.696ZM293.449 131.696H300.361C301.657 131.696 302.305 131.048 302.305 129.752V86.768C302.305 86.096 302.161 85.616 301.873 85.328C301.585 84.992 301.081 84.824 300.361 84.824H297.769C294.745 84.824 292.129 86.36 289.921 89.432C288.529 91.4 287.593 93.872 287.113 96.848C286.633 99.776 286.393 101.936 286.393 103.328H284.377L284.953 82.736H326.281L326.857 103.328H324.841C324.841 101.936 324.601 99.776 324.121 96.848C323.641 93.872 322.705 91.4 321.313 89.432C319.105 86.36 316.489 84.824 313.465 84.824H310.873C310.153 84.824 309.649 84.992 309.361 85.328C309.073 85.616 308.929 86.096 308.929 86.768V129.752C308.929 131.048 309.577 131.696 310.873 131.696H317.785V134H293.449V131.696Z" fill="white"/>
<path d="M60.8032 51.696V50.696H59.8032V51.696H60.8032ZM69.2272 5.328L68.4679 5.97879L68.4929 6.00795L68.5201 6.0351L69.2272 5.328ZM57.2752 9.432L56.4631 8.84835L56.4588 8.85453L57.2752 9.432ZM54.4672 16.848L55.454 17.0098L55.4544 17.0072L54.4672 16.848ZM53.7472 23.328V24.328H54.7472V23.328H53.7472ZM51.7312 23.328L50.7316 23.3L50.7028 24.328H51.7312V23.328ZM52.3072 2.736V1.736H51.3348L51.3076 2.70804L52.3072 2.736ZM93.6352 2.736L94.6348 2.70804L94.6076 1.736H93.6352V2.736ZM94.2112 23.328V24.328H95.2396L95.2108 23.3L94.2112 23.328ZM92.1952 23.328H91.1952V24.328H92.1952V23.328ZM91.4752 16.848L90.4879 17.0072L90.4884 17.0098L91.4752 16.848ZM88.6672 9.432L89.4836 8.85452L89.4792 8.84836L88.6672 9.432ZM76.7152 5.328L77.4223 6.0351L77.4495 6.00795L77.4744 5.97879L76.7152 5.328ZM85.1392 51.696H86.1392V50.696H85.1392V51.696ZM85.1392 54V55H86.1392V54H85.1392ZM60.8032 54H59.8032V55H60.8032V54ZM60.8032 52.696H67.7152V50.696H60.8032V52.696ZM67.7152 52.696C68.5173 52.696 69.3026 52.4948 69.8803 51.9171C70.458 51.3394 70.6592 50.5541 70.6592 49.752H68.6592C68.6592 50.2459 68.5364 50.4326 68.4661 50.5029C68.3958 50.5732 68.209 50.696 67.7152 50.696V52.696ZM70.6592 49.752V6.768H68.6592V49.752H70.6592ZM70.6592 6.768C70.6592 5.99449 70.5004 5.18695 69.9343 4.62089L68.5201 6.0351C68.53 6.04504 68.6592 6.19751 68.6592 6.768H70.6592ZM69.9864 4.6772C69.4166 4.01244 68.5479 3.824 67.7152 3.824V5.824C68.3225 5.824 68.4617 5.97156 68.4679 5.97879L69.9864 4.6772ZM67.7152 3.824H65.1232V5.824H67.7152V3.824ZM65.1232 3.824C61.6965 3.824 58.8063 5.5883 56.4632 8.84836L58.0872 10.0156C60.16 7.13169 62.5019 5.824 65.1232 5.824V3.824ZM56.4588 8.85453C54.9594 10.9743 53.9783 13.599 53.4799 16.6888L55.4544 17.0072C55.9161 14.145 56.807 11.8257 58.0916 10.0095L56.4588 8.85453ZM53.4804 16.6862C52.9991 19.6219 52.7472 21.8496 52.7472 23.328H54.7472C54.7472 22.0224 54.9753 19.9301 55.454 17.0098L53.4804 16.6862ZM53.7472 22.328H51.7312V24.328H53.7472V22.328ZM52.7308 23.356L53.3068 2.76396L51.3076 2.70804L50.7316 23.3L52.7308 23.356ZM52.3072 3.736H93.6352V1.736H52.3072V3.736ZM92.6356 2.76396L93.2116 23.356L95.2108 23.3L94.6348 2.70804L92.6356 2.76396ZM94.2112 22.328H92.1952V24.328H94.2112V22.328ZM93.1952 23.328C93.1952 21.8496 92.9433 19.6219 92.462 16.6862L90.4884 17.0098C90.9671 19.9301 91.1952 22.0224 91.1952 23.328H93.1952ZM92.4624 16.6888C91.9641 13.599 90.983 10.9743 89.4836 8.85453L87.8508 10.0095C89.1354 11.8257 90.0263 14.145 90.4879 17.0072L92.4624 16.6888ZM89.4792 8.84836C87.136 5.5883 84.2459 3.824 80.8192 3.824V5.824C83.4405 5.824 85.7823 7.13169 87.8552 10.0156L89.4792 8.84836ZM80.8192 3.824H78.2272V5.824H80.8192V3.824ZM78.2272 3.824C77.3945 3.824 76.5257 4.01244 75.9559 4.6772L77.4744 5.97879C77.4806 5.97156 77.6199 5.824 78.2272 5.824V3.824ZM76.0081 4.62089C75.442 5.18695 75.2832 5.99448 75.2832 6.768H77.2832C77.2832 6.19751 77.4124 6.04504 77.4223 6.0351L76.0081 4.62089ZM75.2832 6.768V49.752H77.2832V6.768H75.2832ZM75.2832 49.752C75.2832 50.5541 75.4844 51.3394 76.0621 51.9171C76.6398 52.4948 77.425 52.696 78.2272 52.696V50.696C77.7333 50.696 77.5466 50.5732 77.4763 50.5029C77.406 50.4326 77.2832 50.2459 77.2832 49.752H75.2832ZM78.2272 52.696H85.1392V50.696H78.2272V52.696ZM84.1392 51.696V54H86.1392V51.696H84.1392ZM85.1392 53H60.8032V55H85.1392V53ZM61.8032 54V51.696H59.8032V54H61.8032ZM104.57 51.696V50.696H103.57V51.696H104.57ZM111.194 5.544L110.434 6.19479L110.484 6.25319L110.543 6.30325L111.194 5.544ZM104.57 5.04H103.57V6.04H104.57V5.04ZM104.57 2.736V1.736H103.57V2.736H104.57ZM144.746 2.736L145.745 2.72L145.73 1.736H144.746V2.736ZM145.034 20.736V21.736H146.05L146.033 20.72L145.034 20.736ZM143.234 20.736H142.234V21.736H143.234V20.736ZM142.586 15.84L141.599 16.0044L141.601 16.0144L141.603 16.0243L142.586 15.84ZM140.21 9.648L139.374 10.1967L139.374 10.1976L140.21 9.648ZM118.754 5.544L118.047 4.83689L118.047 4.83689L118.754 5.544ZM118.322 26.352H117.322V27.352H118.322V26.352ZM129.122 22.608L128.207 22.2035L128.204 22.2109L128.201 22.2184L129.122 22.608ZM130.778 14.616V13.616H129.778V14.616H130.778ZM132.65 14.616H133.65V13.616H132.65V14.616ZM132.65 40.392V41.392H133.65V40.392H132.65ZM130.778 40.392H129.778V41.392H130.778V40.392ZM129.122 32.4L128.201 32.7896L128.204 32.7971L128.207 32.8045L129.122 32.4ZM118.322 28.656V27.656H117.322V28.656H118.322ZM136.034 50.76L135.636 49.8424L135.636 49.8424L136.034 50.76ZM139.706 47.88L140.495 48.4939L140.507 48.4778L140.519 48.4612L139.706 47.88ZM142.082 42.84L141.126 42.5443L141.126 42.5443L142.082 42.84ZM143.378 37.368L144.367 37.5135L144.368 37.5094L143.378 37.368ZM143.81 34.128V33.128H142.905L142.815 34.0285L143.81 34.128ZM145.61 34.128L146.609 34.1714L146.654 33.128H145.61V34.128ZM144.746 54V55H145.703L145.745 54.0434L144.746 54ZM104.57 54H103.57V55H104.57V54ZM104.57 52.696H109.754V50.696H104.57V52.696ZM109.754 52.696C110.556 52.696 111.341 52.4948 111.919 51.9171C112.496 51.3394 112.698 50.5541 112.698 49.752H110.698C110.698 50.2459 110.575 50.4326 110.505 50.5029C110.434 50.5732 110.247 50.696 109.754 50.696V52.696ZM112.698 49.752V6.984H110.698V49.752H112.698ZM112.698 6.984C112.698 6.17263 112.496 5.34351 111.844 4.78474L110.543 6.30325C110.563 6.32048 110.698 6.45136 110.698 6.984H112.698ZM111.953 4.8932C111.394 4.24131 110.565 4.04 109.754 4.04V6.04C110.286 6.04 110.417 6.17469 110.434 6.19479L111.953 4.8932ZM109.754 4.04H104.57V6.04H109.754V4.04ZM105.57 5.04V2.736H103.57V5.04H105.57ZM104.57 3.736H144.746V1.736H104.57V3.736ZM143.746 2.752L144.034 20.752L146.033 20.72L145.745 2.72L143.746 2.752ZM145.034 19.736H143.234V21.736H145.034V19.736ZM144.234 20.736C144.234 19.673 144 17.9586 143.568 15.6557L141.603 16.0243C142.035 18.3294 142.234 19.879 142.234 20.736H144.234ZM143.572 15.6756C143.167 13.2438 142.327 11.0468 141.045 9.09838L139.374 10.1976C140.492 11.8972 141.237 13.8282 141.599 16.0044L143.572 15.6756ZM141.046 9.09934C138.846 5.74813 135.701 4.04 131.714 4.04V6.04C135.022 6.04 137.541 7.40386 139.374 10.1967L141.046 9.09934ZM131.714 4.04H120.266V6.04H131.714V4.04ZM120.266 4.04C119.439 4.04 118.636 4.24721 118.047 4.83689L119.461 6.25111C119.543 6.16879 119.748 6.04 120.266 6.04V4.04ZM118.047 4.83689C117.48 5.40295 117.322 6.21048 117.322 6.984H119.322C119.322 6.41351 119.451 6.26104 119.461 6.2511L118.047 4.83689ZM117.322 6.984V26.352H119.322V6.984H117.322ZM118.322 27.352H123.866V25.352H118.322V27.352ZM123.866 27.352C125.268 27.352 126.528 26.9914 127.596 26.2305C128.657 25.4745 129.461 24.3721 130.043 22.9976L128.201 22.2184C127.726 23.3398 127.126 24.1095 126.435 24.6015C125.752 25.0886 124.911 25.352 123.866 25.352V27.352ZM130.036 23.0125C131.199 20.3843 131.778 17.5819 131.778 14.616H129.778C129.778 17.314 129.253 19.8397 128.207 22.2035L130.036 23.0125ZM130.778 15.616H132.65V13.616H130.778V15.616ZM131.65 14.616V40.392H133.65V14.616H131.65ZM132.65 39.392H130.778V41.392H132.65V39.392ZM131.778 40.392C131.778 37.4261 131.199 34.6237 130.036 31.9955L128.207 32.8045C129.253 35.1683 129.778 37.6939 129.778 40.392H131.778ZM130.043 32.0104C129.461 30.6358 128.657 29.5335 127.596 28.7775C126.528 28.0166 125.268 27.656 123.866 27.656V29.656C124.911 29.656 125.752 29.9194 126.435 30.4065C127.126 30.8985 127.726 31.6681 128.201 32.7896L130.043 32.0104ZM123.866 27.656H118.322V29.656H123.866V27.656ZM117.322 28.656V49.752H119.322V28.656H117.322ZM117.322 49.752C117.322 50.5541 117.523 51.3394 118.101 51.9171C118.678 52.4948 119.463 52.696 120.266 52.696V50.696C119.772 50.696 119.585 50.5732 119.515 50.5029C119.444 50.4326 119.322 50.2459 119.322 49.752H117.322ZM120.266 52.696H131.786V50.696H120.266V52.696ZM131.786 52.696C133.331 52.696 134.882 52.349 136.431 51.6776L135.636 49.8424C134.306 50.419 133.024 50.696 131.786 50.696V52.696ZM136.431 51.6776C138.032 50.9837 139.389 49.9161 140.495 48.4939L138.916 47.2661C138.006 48.4359 136.915 49.2883 135.636 49.8424L136.431 51.6776ZM140.519 48.4612C141.556 47.0099 142.39 45.2269 143.037 43.1357L141.126 42.5443C140.526 44.4851 139.775 46.0621 138.892 47.2988L140.519 48.4612ZM143.037 43.1357C143.672 41.0834 144.118 39.2081 144.367 37.5135L142.388 37.2225C142.157 38.7919 141.739 40.5646 141.126 42.5443L143.037 43.1357ZM144.368 37.5094C144.607 35.8354 144.754 34.7328 144.805 34.2275L142.815 34.0285C142.769 34.4832 142.629 35.5406 142.388 37.2266L144.368 37.5094ZM143.81 35.128H145.61V33.128H143.81V35.128ZM144.611 34.0846L143.747 53.9566L145.745 54.0434L146.609 34.1714L144.611 34.0846ZM144.746 53H104.57V55H144.746V53ZM105.57 54V51.696H103.57V54H105.57ZM166.809 51.408L167.436 50.6294L167.436 50.6294L166.809 51.408ZM159.465 41.256L158.532 41.6164L158.537 41.6292L159.465 41.256ZM159.465 14.616L158.538 14.2408L158.538 14.2408L159.465 14.616ZM166.449 5.04L167.063 5.82939L167.07 5.82329L166.449 5.04ZM187.617 5.976L186.94 6.71193L186.941 6.71315L187.617 5.976ZM190.713 7.2L189.932 6.5753L189.89 6.62782L189.855 6.6855L190.713 7.2ZM191.289 6.048L192.228 6.38974L192.232 6.37956L192.236 6.3693L191.289 6.048ZM192.657 2.016V1.016H191.94L191.71 1.6947L192.657 2.016ZM194.457 2.016L195.456 2.00309L195.444 1.016H194.457V2.016ZM194.745 24.336V25.336H195.758L195.744 24.3231L194.745 24.336ZM192.729 24.336L191.754 24.5616L191.934 25.336H192.729V24.336ZM188.625 12.888L187.744 13.3621L187.747 13.3678L188.625 12.888ZM183.081 5.976L182.477 6.77371L182.487 6.78057L183.081 5.976ZM167.457 9.936L166.55 9.51425L166.546 9.52299L167.457 9.936ZM167.601 46.584L166.691 46.9986L166.692 47.0024L167.601 46.584ZM188.841 47.88L188.025 47.302L188.023 47.3042L188.841 47.88ZM193.017 35.352V34.352H192.083L192.019 35.2835L193.017 35.352ZM195.609 35.352L196.607 35.4028L196.661 34.352H195.609V35.352ZM193.809 44.136L192.864 43.8063L192.862 43.813L192.86 43.8198L193.809 44.136ZM188.481 51.984L189.136 52.7392L189.136 52.7392L188.481 51.984ZM178.329 54.296C174.073 54.296 170.46 53.0662 167.436 50.6294L166.181 52.1866C169.59 54.9338 173.656 56.296 178.329 56.296V54.296ZM167.436 50.6294C164.365 48.1541 162.014 44.9148 160.392 40.8828L158.537 41.6292C160.275 45.9492 162.82 49.4779 166.181 52.1866L167.436 50.6294ZM160.397 40.8956C158.811 36.7898 158.017 32.4723 158.017 27.936H156.017C156.017 32.7117 156.854 37.2742 158.532 41.6164L160.397 40.8956ZM158.017 27.936C158.017 23.2019 158.813 18.8911 160.392 14.9912L158.538 14.2408C156.852 18.4049 156.017 22.9741 156.017 27.936H158.017ZM160.392 14.9912C161.967 11.0999 164.195 8.05927 167.063 5.82935L165.835 4.25065C162.654 6.72472 160.227 10.0681 158.538 14.2408L160.392 14.9912ZM167.07 5.82329C169.909 3.57019 173.216 2.44 177.033 2.44V0.439999C172.786 0.439999 169.036 1.70981 165.827 4.25671L167.07 5.82329ZM177.033 2.44C178.987 2.44 180.822 2.88252 182.552 3.76981L183.465 1.99018C181.451 0.957473 179.303 0.439999 177.033 0.439999V2.44ZM182.552 3.76981C184.366 4.69993 185.822 5.68361 186.94 6.71193L188.294 5.24006C187.011 4.06038 185.395 2.98006 183.465 1.99018L182.552 3.76981ZM186.941 6.71315C187.532 7.25463 188.051 7.68596 188.49 7.98804C188.71 8.13895 188.929 8.27177 189.144 8.37006C189.344 8.46186 189.617 8.56 189.921 8.56V6.56C190.032 6.56 190.065 6.59214 189.977 6.55193C189.904 6.51822 189.788 6.45304 189.623 6.33996C189.294 6.11404 188.854 5.75336 188.292 5.23884L186.941 6.71315ZM189.921 8.56C190.51 8.56 191.181 8.36281 191.57 7.7145L189.855 6.6855C189.87 6.66002 189.892 6.63253 189.92 6.60766C189.948 6.583 189.975 6.56788 189.993 6.55963C190.026 6.5447 190.014 6.56 189.921 6.56V8.56ZM191.493 7.82469C191.788 7.45634 192.025 6.95008 192.228 6.38974L190.349 5.70626C190.169 6.20192 190.021 6.46366 189.932 6.5753L191.493 7.82469ZM192.236 6.3693L193.604 2.33729L191.71 1.6947L190.342 5.7267L192.236 6.3693ZM192.657 3.016H194.457V1.016H192.657V3.016ZM193.457 2.0289L193.745 24.3489L195.744 24.3231L195.456 2.00309L193.457 2.0289ZM194.745 23.336H192.729V25.336H194.745V23.336ZM193.703 24.1104C192.633 19.4894 191.238 15.5818 189.502 12.4082L187.747 13.3678C189.372 16.3382 190.712 20.0625 191.754 24.5616L193.703 24.1104ZM189.505 12.4139C187.782 9.21414 185.848 6.77559 183.674 5.17142L182.487 6.78057C184.345 8.15241 186.107 10.3219 187.744 13.3621L189.505 12.4139ZM183.684 5.17834C181.587 3.59285 179.412 2.744 177.177 2.744V4.744C178.877 4.744 180.638 5.38315 182.477 6.77366L183.684 5.17834ZM177.177 2.744C174.742 2.744 172.598 3.29653 170.789 4.44859C168.981 5.60072 167.575 7.30982 166.55 9.51427L168.363 10.3577C169.258 8.43417 170.432 7.04727 171.864 6.1354C173.295 5.22347 175.051 4.744 177.177 4.744V2.744ZM166.546 9.52299C164.587 13.8432 163.649 20.0114 163.649 27.936H165.649C165.649 20.1166 166.582 14.2848 168.367 10.349L166.546 9.52299ZM163.649 27.936C163.649 36.1036 164.635 42.4872 166.691 46.9986L168.511 46.1694C166.63 42.0408 165.649 35.9924 165.649 27.936H163.649ZM166.692 47.0024C167.749 49.2971 169.263 51.064 171.246 52.2485C173.223 53.4293 175.6 53.992 178.329 53.992V51.992C175.873 51.992 173.871 51.4867 172.271 50.5315C170.678 49.58 169.42 48.1429 168.509 46.1656L166.692 47.0024ZM178.329 53.992C183.222 53.992 187.049 52.1609 189.658 48.4558L188.023 47.3042C185.832 50.4151 182.651 51.992 178.329 51.992V53.992ZM189.657 48.458C192.227 44.8296 193.668 40.4702 194.014 35.4205L192.019 35.2835C191.693 40.0258 190.35 44.0184 188.025 47.302L189.657 48.458ZM193.017 36.352H195.609V34.352H193.017V36.352ZM194.61 35.3012C194.471 38.0267 193.893 40.8608 192.864 43.8063L194.753 44.4657C195.836 41.3632 196.458 38.3413 196.607 35.4028L194.61 35.3012ZM192.86 43.8198C191.912 46.664 190.242 49.1313 187.825 51.2288L189.136 52.7392C191.807 50.4207 193.689 47.6559 194.757 44.4522L192.86 43.8198ZM187.825 51.2288C185.506 53.2419 182.375 54.296 178.329 54.296V56.296C182.73 56.296 186.368 55.1421 189.136 52.7392L187.825 51.2288ZM206.835 51.696V50.696H205.835V51.696H206.835ZM206.835 5.04H205.835V6.04H206.835V5.04ZM206.835 2.736V1.736H205.835V2.736H206.835ZM227.715 2.736H228.715V1.736H227.715V2.736ZM227.715 5.04V6.04H228.715V5.04H227.715ZM220.587 25.92H219.587V26.92H220.587V25.92ZM242.331 25.92V26.92H243.331V25.92H242.331ZM235.203 5.04H234.203V6.04H235.203V5.04ZM235.203 2.736V1.736H234.203V2.736H235.203ZM256.083 2.736H257.083V1.736H256.083V2.736ZM256.083 5.04V6.04H257.083V5.04H256.083ZM256.083 51.696H257.083V50.696H256.083V51.696ZM256.083 54V55H257.083V54H256.083ZM235.203 54H234.203V55H235.203V54ZM235.203 51.696V50.696H234.203V51.696H235.203ZM242.331 28.224H243.331V27.224H242.331V28.224ZM220.587 28.224V27.224H219.587V28.224H220.587ZM227.715 51.696H228.715V50.696H227.715V51.696ZM227.715 54V55H228.715V54H227.715ZM206.835 54H205.835V55H206.835V54ZM206.835 52.696H212.019V50.696H206.835V52.696ZM212.019 52.696C212.821 52.696 213.606 52.4948 214.184 51.9171C214.762 51.3394 214.963 50.5541 214.963 49.752H212.963C212.963 50.2459 212.84 50.4326 212.77 50.5029C212.7 50.5732 212.513 50.696 212.019 50.696V52.696ZM214.963 49.752V6.984H212.963V49.752H214.963ZM214.963 6.984C214.963 6.18185 214.762 5.39657 214.184 4.81889C213.606 4.24121 212.821 4.04 212.019 4.04V6.04C212.513 6.04 212.7 6.16279 212.77 6.23311C212.84 6.30343 212.963 6.49014 212.963 6.984H214.963ZM212.019 4.04H206.835V6.04H212.019V4.04ZM207.835 5.04V2.736H205.835V5.04H207.835ZM206.835 3.736H227.715V1.736H206.835V3.736ZM226.715 2.736V5.04H228.715V2.736H226.715ZM227.715 4.04H222.531V6.04H227.715V4.04ZM222.531 4.04C221.729 4.04 220.944 4.24121 220.366 4.81889C219.788 5.39657 219.587 6.18185 219.587 6.984H221.587C221.587 6.49014 221.71 6.30343 221.78 6.23311C221.85 6.16279 222.037 6.04 222.531 6.04V4.04ZM219.587 6.984V25.92H221.587V6.984H219.587ZM220.587 26.92H242.331V24.92H220.587V26.92ZM243.331 25.92V6.984H241.331V25.92H243.331ZM243.331 6.984C243.331 6.18185 243.13 5.39657 242.552 4.81889C241.974 4.24121 241.189 4.04 240.387 4.04V6.04C240.881 6.04 241.068 6.16279 241.138 6.23311C241.208 6.30343 241.331 6.49014 241.331 6.984H243.331ZM240.387 4.04H235.203V6.04H240.387V4.04ZM236.203 5.04V2.736H234.203V5.04H236.203ZM235.203 3.736H256.083V1.736H235.203V3.736ZM255.083 2.736V5.04H257.083V2.736H255.083ZM256.083 4.04H250.899V6.04H256.083V4.04ZM250.899 4.04C250.097 4.04 249.312 4.24121 248.734 4.81889C248.156 5.39657 247.955 6.18185 247.955 6.984H249.955C249.955 6.49014 250.078 6.30343 250.148 6.23311C250.218 6.16279 250.405 6.04 250.899 6.04V4.04ZM247.955 6.984V49.752H249.955V6.984H247.955ZM247.955 49.752C247.955 50.5541 248.156 51.3394 248.734 51.9171C249.312 52.4948 250.097 52.696 250.899 52.696V50.696C250.405 50.696 250.218 50.5732 250.148 50.5029C250.078 50.4326 249.955 50.2459 249.955 49.752H247.955ZM250.899 52.696H256.083V50.696H250.899V52.696ZM255.083 51.696V54H257.083V51.696H255.083ZM256.083 53H235.203V55H256.083V53ZM236.203 54V51.696H234.203V54H236.203ZM235.203 52.696H240.387V50.696H235.203V52.696ZM240.387 52.696C241.189 52.696 241.974 52.4948 242.552 51.9171C243.13 51.3394 243.331 50.5541 243.331 49.752H241.331C241.331 50.2459 241.208 50.4326 241.138 50.5029C241.068 50.5732 240.881 50.696 240.387 50.696V52.696ZM243.331 49.752V28.224H241.331V49.752H243.331ZM242.331 27.224H220.587V29.224H242.331V27.224ZM219.587 28.224V49.752H221.587V28.224H219.587ZM219.587 49.752C219.587 50.5541 219.788 51.3394 220.366 51.9171C220.944 52.4948 221.729 52.696 222.531 52.696V50.696C222.037 50.696 221.85 50.5732 221.78 50.5029C221.71 50.4326 221.587 50.2459 221.587 49.752H219.587ZM222.531 52.696H227.715V50.696H222.531V52.696ZM226.715 51.696V54H228.715V51.696H226.715ZM227.715 53H206.835V55H227.715V53ZM207.835 54V51.696H205.835V54H207.835ZM12.3126 89.216L13.2701 88.9275L13.0557 88.216H12.3126V89.216ZM11.8806 89.216V88.216H10.8806V89.216H11.8806ZM13.1046 130.184L12.3133 130.795L12.3288 130.816L12.3453 130.835L13.1046 130.184ZM19.0086 131.696H20.0086V130.696H19.0086V131.696ZM19.0086 134V135H20.0086V134H19.0086ZM1.8726 134H0.8726V135H1.8726V134ZM1.8726 131.696V130.696H0.8726V131.696H1.8726ZM7.7046 130.184L6.93063 129.551L6.92736 129.555L7.7046 130.184ZM8.4966 85.544L7.73735 86.1948L7.78741 86.2532L7.84581 86.3033L8.4966 85.544ZM1.8726 85.04H0.8726V86.04H1.8726V85.04ZM1.8726 82.736V81.736H0.8726V82.736H1.8726ZM17.1366 82.736L18.0955 82.4523L17.8836 81.736H17.1366V82.736ZM28.8726 122.408L27.9137 122.692L28.9062 126.047L29.8366 122.674L28.8726 122.408ZM39.8166 82.736V81.736H39.0551L38.8526 82.4701L39.8166 82.736ZM54.7206 82.736H55.7206V81.736H54.7206V82.736ZM54.7206 85.04V86.04H55.7206V85.04H54.7206ZM48.0246 85.544L47.3175 84.8369L47.3175 84.8369L48.0246 85.544ZM54.7206 131.696H55.7206V130.696H54.7206V131.696ZM54.7206 134V135H55.7206V134H54.7206ZM33.8406 134H32.8406V135H33.8406V134ZM33.8406 131.696V130.696H32.8406V131.696H33.8406ZM40.9686 87.272H41.9686L40.0049 87.0052L40.9686 87.272ZM27.7926 134.864V135.864H28.5534L28.7563 135.131L27.7926 134.864ZM26.0646 134.864L25.1071 135.152L25.3215 135.864H26.0646V134.864ZM12.3126 88.216H11.8806V90.216H12.3126V88.216ZM10.8806 89.216V125.936H12.8806V89.216H10.8806ZM10.8806 125.936C10.8806 127.86 11.3233 129.514 12.3133 130.795L13.8959 129.573C13.2539 128.742 12.8806 127.564 12.8806 125.936H10.8806ZM12.3453 130.835C13.402 132.068 14.7848 132.696 16.4166 132.696V130.696C15.3604 130.696 14.5352 130.316 13.8639 129.533L12.3453 130.835ZM16.4166 132.696H19.0086V130.696H16.4166V132.696ZM18.0086 131.696V134H20.0086V131.696H18.0086ZM19.0086 133H1.8726V135H19.0086V133ZM2.8726 134V131.696H0.8726V134H2.8726ZM1.8726 132.696H4.4646V130.696H1.8726V132.696ZM4.4646 132.696C6.09767 132.696 7.46814 132.065 8.48185 130.813L6.92736 129.555C6.30906 130.319 5.51953 130.696 4.4646 130.696V132.696ZM8.47856 130.817C9.52789 129.535 10.0006 127.872 10.0006 125.936H8.0006C8.0006 127.552 7.60931 128.721 6.93064 129.551L8.47856 130.817ZM10.0006 125.936V86.984H8.0006V125.936H10.0006ZM10.0006 86.984C10.0006 86.1726 9.79929 85.3435 9.14739 84.7847L7.84581 86.3033C7.86591 86.3205 8.0006 86.4514 8.0006 86.984H10.0006ZM9.25586 84.8932C8.69708 84.2413 7.86796 84.04 7.0566 84.04V86.04C7.58924 86.04 7.72012 86.1747 7.73735 86.1948L9.25586 84.8932ZM7.0566 84.04H1.8726V86.04H7.0566V84.04ZM2.8726 85.04V82.736H0.8726V85.04H2.8726ZM1.8726 83.736H17.1366V81.736H1.8726V83.736ZM16.1777 83.0197L27.9137 122.692L29.8315 122.124L18.0955 82.4523L16.1777 83.0197ZM29.8366 122.674L40.7806 83.0019L38.8526 82.4701L27.9086 122.142L29.8366 122.674ZM39.8166 83.736H54.7206V81.736H39.8166V83.736ZM53.7206 82.736V85.04H55.7206V82.736H53.7206ZM54.7206 84.04H49.5366V86.04H54.7206V84.04ZM49.5366 84.04C48.7105 84.04 47.9072 84.2472 47.3175 84.8369L48.7317 86.2511C48.814 86.1688 49.0187 86.04 49.5366 86.04V84.04ZM47.3175 84.8369C46.7514 85.403 46.5926 86.2105 46.5926 86.984H48.5926C48.5926 86.4135 48.7218 86.261 48.7317 86.2511L47.3175 84.8369ZM46.5926 86.984V129.752H48.5926V86.984H46.5926ZM46.5926 129.752C46.5926 130.554 46.7938 131.339 47.3715 131.917C47.9492 132.495 48.7345 132.696 49.5366 132.696V130.696C49.0427 130.696 48.856 130.573 48.7857 130.503C48.7154 130.433 48.5926 130.246 48.5926 129.752H46.5926ZM49.5366 132.696H54.7206V130.696H49.5366V132.696ZM53.7206 131.696V134H55.7206V131.696H53.7206ZM54.7206 133H33.8406V135H54.7206V133ZM34.8406 134V131.696H32.8406V134H34.8406ZM33.8406 132.696H39.0246V130.696H33.8406V132.696ZM39.0246 132.696C39.8267 132.696 40.612 132.495 41.1897 131.917C41.7674 131.339 41.9686 130.554 41.9686 129.752H39.9686C39.9686 130.246 39.8458 130.433 39.7755 130.503C39.7052 130.573 39.5185 130.696 39.0246 130.696V132.696ZM41.9686 129.752V87.272H39.9686V129.752H41.9686ZM40.0049 87.0052L26.8289 134.597L28.7563 135.131L41.9323 87.5388L40.0049 87.0052ZM27.7926 133.864H26.0646V135.864H27.7926V133.864ZM27.0221 134.576L13.2701 88.9275L11.3551 89.5045L25.1071 135.152L27.0221 134.576ZM63.2087 131.696V130.696H62.2087V131.696H63.2087ZM72.0647 126.44L73.0027 126.787L73.0073 126.774L72.0647 126.44ZM87.5447 82.736V81.736H86.838L86.6021 82.4021L87.5447 82.736ZM89.3447 82.736L90.2912 82.4131L90.0601 81.736H89.3447V82.736ZM104.969 128.528L104.022 128.851L104.031 128.875L104.04 128.899L104.969 128.528ZM106.697 131.048L106.115 131.862L106.135 131.876L106.156 131.889L106.697 131.048ZM113.321 131.696H114.321V130.696H113.321V131.696ZM113.321 134V135H114.321V134H113.321ZM91.0007 134H90.0007V135H91.0007V134ZM91.0007 131.696V130.696H90.0007V131.696H91.0007ZM97.5527 131.192L98.1262 132.011L98.1524 131.993L98.1774 131.973L97.5527 131.192ZM97.9847 128.312L97.0419 128.645L97.055 128.682L97.0709 128.718L97.9847 128.312ZM94.6007 118.736L95.5436 118.403L95.3079 117.736H94.6007V118.736ZM77.7527 118.736V117.736H77.0487L76.8113 118.399L77.7527 118.736ZM76.0247 123.56L75.0833 123.223L75.0809 123.23L76.0247 123.56ZM75.8087 130.544L74.9692 131.087L74.9768 131.099L74.9847 131.111L75.8087 130.544ZM82.9367 131.696H83.9367V130.696H82.9367V131.696ZM82.9367 134V135H83.9367V134H82.9367ZM63.2087 134H62.2087V135H63.2087V134ZM78.5447 116.432L77.6021 116.098L77.1298 117.432H78.5447V116.432ZM93.8087 116.432V117.432H95.2062L94.7552 116.109L93.8087 116.432ZM86.3207 94.472L87.2672 94.1493L86.3385 91.4258L85.3781 94.1382L86.3207 94.472ZM63.2087 132.696H65.8727V130.696H63.2087V132.696ZM65.8727 132.696C67.5139 132.696 68.9703 132.181 70.1919 131.144C71.3953 130.123 72.3166 128.642 73.0026 126.787L71.1268 126.093C70.5168 127.742 69.7581 128.889 68.8976 129.62C68.0552 130.335 67.0635 130.696 65.8727 130.696V132.696ZM73.0073 126.774L88.4873 83.0699L86.6021 82.4021L71.1221 126.106L73.0073 126.774ZM87.5447 83.736H89.3447V81.736H87.5447V83.736ZM88.3983 83.0589L104.022 128.851L105.915 128.205L90.2912 82.4131L88.3983 83.0589ZM104.04 128.899C104.554 130.185 105.223 131.224 106.115 131.862L107.278 130.234C106.826 129.912 106.343 129.271 105.897 128.157L104.04 128.899ZM106.156 131.889C107.034 132.453 108.101 132.696 109.289 132.696V130.696C108.364 130.696 107.704 130.507 107.237 130.207L106.156 131.889ZM109.289 132.696H113.321V130.696H109.289V132.696ZM112.321 131.696V134H114.321V131.696H112.321ZM113.321 133H91.0007V135H113.321V133ZM92.0007 134V131.696H90.0007V134H92.0007ZM91.0007 132.696H95.7527V130.696H91.0007V132.696ZM95.7527 132.696C96.6304 132.696 97.443 132.489 98.1262 132.011L96.9793 130.373C96.7025 130.567 96.3151 130.696 95.7527 130.696V132.696ZM98.1774 131.973C98.8222 131.457 99.2727 130.762 99.2727 129.896H97.2727C97.2727 129.99 97.2432 130.159 96.928 130.411L98.1774 131.973ZM99.2727 129.896C99.2727 129.175 99.1624 128.5 98.8985 127.906L97.0709 128.718C97.191 128.988 97.2727 129.369 97.2727 129.896H99.2727ZM98.9276 127.979L95.5436 118.403L93.6579 119.069L97.0419 128.645L98.9276 127.979ZM94.6007 117.736H77.7527V119.736H94.6007V117.736ZM76.8113 118.399L75.0833 123.223L76.9661 123.897L78.6941 119.073L76.8113 118.399ZM75.0809 123.23C74.4085 125.151 74.0167 126.686 74.0167 127.736H76.0167C76.0167 127.058 76.297 125.809 76.9686 123.89L75.0809 123.23ZM74.0167 127.736C74.0167 128.967 74.3274 130.095 74.9692 131.087L76.6483 130.001C76.2341 129.361 76.0167 128.617 76.0167 127.736H74.0167ZM74.9847 131.111C75.7664 132.248 77.0589 132.696 78.5447 132.696V130.696C77.4385 130.696 76.9071 130.376 76.6328 129.977L74.9847 131.111ZM78.5447 132.696H82.9367V130.696H78.5447V132.696ZM81.9367 131.696V134H83.9367V131.696H81.9367ZM82.9367 133H63.2087V135H82.9367V133ZM64.2087 134V131.696H62.2087V134H64.2087ZM78.5447 117.432H93.8087V115.432H78.5447V117.432ZM94.7552 116.109L87.2672 94.1493L85.3742 94.7947L92.8622 116.755L94.7552 116.109ZM85.3781 94.1382L77.6021 116.098L79.4874 116.766L87.2634 94.8058L85.3781 94.1382ZM154.769 134.072L154.322 134.966L154.33 134.97L154.338 134.974L154.769 134.072ZM152.249 131.48L151.362 131.941L151.362 131.941L152.249 131.48ZM150.161 118.736L149.161 118.751L149.161 118.752L150.161 118.736ZM148.433 110.744L147.543 111.199L147.547 111.207L148.433 110.744ZM135.257 107.504V106.504H134.257V107.504H135.257ZM135.689 131.264L134.93 131.915L134.955 131.944L134.982 131.971L135.689 131.264ZM143.609 131.696H144.609V130.696H143.609V131.696ZM143.609 134V135H144.609V134H143.609ZM121.505 134H120.505V135H121.505V134ZM121.505 131.696V130.696H120.505V131.696H121.505ZM128.129 85.544L127.37 86.1948L127.42 86.2532L127.478 86.3033L128.129 85.544ZM121.505 85.04H120.505V86.04H121.505V85.04ZM121.505 82.736V81.736H120.505V82.736H121.505ZM156.569 85.4L157.082 84.5413L157.082 84.5413L156.569 85.4ZM157.001 102.824L156.375 102.044L156.368 102.05L157.001 102.824ZM147.425 106.64L147.323 105.645L146.425 105.737V106.64H147.425ZM147.425 106.928H146.425V107.753L147.236 107.91L147.425 106.928ZM154.121 110.744L153.362 111.395L153.37 111.404L153.379 111.414L154.121 110.744ZM157.649 120.896L156.656 121.015L156.657 121.018L157.649 120.896ZM158.513 126.872L157.531 127.061L157.535 127.079L157.539 127.097L158.513 126.872ZM159.521 129.536L158.712 130.124L158.743 130.166L158.778 130.205L159.521 129.536ZM164.489 122.48V121.48H163.489V122.48H164.489ZM166.289 122.48H167.289V121.48H166.289V122.48ZM164.921 131.048L165.862 131.385L165.864 131.38L164.921 131.048ZM150.809 102.32L150.058 101.66L150.057 101.661L150.809 102.32ZM151.025 87.488L150.297 88.1734L150.307 88.1844L150.318 88.1951L151.025 87.488ZM135.689 85.544L134.982 84.8369L134.982 84.8369L135.689 85.544ZM135.257 105.2H134.257V106.2H135.257V105.2ZM158.801 133.864C157.324 133.864 156.136 133.617 155.201 133.17L154.338 134.974C155.61 135.583 157.11 135.864 158.801 135.864V133.864ZM155.216 133.178C154.376 132.757 153.678 132.06 153.136 131.019L151.362 131.941C152.068 133.3 153.051 134.331 154.322 134.966L155.216 133.178ZM153.137 131.019C151.956 128.745 151.257 124.702 151.161 118.72L149.161 118.752C149.258 124.77 149.95 129.223 151.362 131.941L153.137 131.019ZM151.161 118.721C151.111 115.401 150.517 112.571 149.319 110.281L147.547 111.207C148.558 113.141 149.115 115.639 149.161 118.751L151.161 118.721ZM149.324 110.289C148.702 109.072 147.864 108.111 146.793 107.46C145.722 106.809 144.479 106.504 143.105 106.504V108.504C144.179 108.504 145.048 108.739 145.754 109.168C146.458 109.597 147.061 110.256 147.543 111.199L149.324 110.289ZM143.105 106.504H135.257V108.504H143.105V106.504ZM134.257 107.504V129.752H136.257V107.504H134.257ZM134.257 129.752C134.257 130.544 134.423 131.324 134.93 131.915L136.448 130.613C136.379 130.532 136.257 130.304 136.257 129.752H134.257ZM134.982 131.971C135.558 132.547 136.403 132.696 137.201 132.696V130.696C136.902 130.696 136.694 130.665 136.558 130.626C136.423 130.588 136.39 130.551 136.396 130.557L134.982 131.971ZM137.201 132.696H143.609V130.696H137.201V132.696ZM142.609 131.696V134H144.609V131.696H142.609ZM143.609 133H121.505V135H143.609V133ZM122.505 134V131.696H120.505V134H122.505ZM121.505 132.696H126.689V130.696H121.505V132.696ZM126.689 132.696C127.491 132.696 128.277 132.495 128.854 131.917C129.432 131.339 129.633 130.554 129.633 129.752H127.633C127.633 130.246 127.51 130.433 127.44 130.503C127.37 130.573 127.183 130.696 126.689 130.696V132.696ZM129.633 129.752V86.984H127.633V129.752H129.633ZM129.633 86.984C129.633 86.1726 129.432 85.3435 128.78 84.7847L127.478 86.3033C127.498 86.3205 127.633 86.4514 127.633 86.984H129.633ZM128.888 84.8932C128.33 84.2413 127.5 84.04 126.689 84.04V86.04C127.222 86.04 127.353 86.1747 127.37 86.1948L128.888 84.8932ZM126.689 84.04H121.505V86.04H126.689V84.04ZM122.505 85.04V82.736H120.505V85.04H122.505ZM121.505 83.736H145.121V81.736H121.505V83.736ZM145.121 83.736C149.657 83.736 153.28 84.6017 156.057 86.2587L157.082 84.5413C153.906 82.6463 149.898 81.736 145.121 81.736V83.736ZM156.057 86.2587C158.668 87.8171 160.033 90.401 160.033 94.256H162.033C162.033 89.855 160.422 86.5349 157.082 84.5413L156.057 86.2587ZM160.033 94.256C160.033 97.5155 158.818 100.081 156.375 102.044L157.627 103.604C160.56 101.247 162.033 98.1004 162.033 94.256H160.033ZM156.368 102.05C153.895 104.073 150.893 105.279 147.323 105.645L147.527 107.635C151.445 107.233 154.827 105.895 157.634 103.598L156.368 102.05ZM146.425 106.64V106.928H148.425V106.64H146.425ZM147.236 107.91C149.762 108.397 151.789 109.559 153.362 111.395L154.88 110.093C152.998 107.897 150.561 106.515 147.615 105.946L147.236 107.91ZM153.379 111.414C154.942 113.147 156.087 116.274 156.656 121.015L158.642 120.777C158.059 115.918 156.852 112.277 154.863 110.074L153.379 111.414ZM156.657 121.018C156.993 123.757 157.284 125.777 157.531 127.061L159.495 126.683C159.262 125.471 158.977 123.507 158.642 120.774L156.657 121.018ZM157.539 127.097C157.833 128.374 158.205 129.427 158.712 130.124L160.33 128.948C160.069 128.589 159.769 127.866 159.487 126.647L157.539 127.097ZM158.778 130.205C159.447 130.949 160.374 131.256 161.393 131.256V129.256C160.781 129.256 160.459 129.083 160.264 128.867L158.778 130.205ZM161.393 131.256C162.138 131.256 162.818 131.015 163.39 130.537C163.943 130.073 164.347 129.428 164.644 128.682C165.232 127.207 165.489 125.109 165.489 122.48H163.489C163.489 125.035 163.231 126.825 162.786 127.942C162.567 128.492 162.326 128.819 162.106 129.003C161.903 129.173 161.68 129.256 161.393 129.256V131.256ZM164.489 123.48H166.289V121.48H164.489V123.48ZM165.289 122.48C165.289 125.502 164.848 128.244 163.978 130.716L165.864 131.38C166.819 128.668 167.289 125.698 167.289 122.48H165.289ZM163.98 130.711C163.59 131.798 162.983 132.559 162.178 133.061C161.36 133.572 160.256 133.864 158.801 133.864V135.864C160.514 135.864 162.014 135.52 163.236 134.759C164.471 133.989 165.34 132.842 165.862 131.385L163.98 130.711ZM142.241 106.2C146.396 106.2 149.605 105.215 151.562 102.979L150.057 101.661C148.653 103.265 146.15 104.2 142.241 104.2V106.2ZM151.561 102.98C153.492 100.78 154.401 97.832 154.401 94.256H152.401C152.401 97.496 151.582 99.9239 150.058 101.66L151.561 102.98ZM154.401 94.256C154.401 91.1475 153.556 88.6049 151.732 86.7809L150.318 88.1951C151.662 89.5391 152.401 91.5085 152.401 94.256H154.401ZM151.753 86.8026C149.991 84.9303 147.593 84.04 144.689 84.04V86.04C147.161 86.04 148.987 86.7817 150.297 88.1734L151.753 86.8026ZM144.689 84.04H137.201V86.04H144.689V84.04ZM137.201 84.04C136.375 84.04 135.572 84.2472 134.982 84.8369L136.396 86.2511C136.479 86.1688 136.683 86.04 137.201 86.04V84.04ZM134.982 84.8369C134.416 85.403 134.257 86.2105 134.257 86.984H136.257C136.257 86.4135 136.386 86.261 136.396 86.2511L134.982 84.8369ZM134.257 86.984V105.2H136.257V86.984H134.257ZM135.257 106.2H142.241V104.2H135.257V106.2ZM175.204 131.696V130.696H174.204V131.696H175.204ZM181.828 85.544L181.069 86.1948L181.119 86.2532L181.177 86.3033L181.828 85.544ZM175.204 85.04H174.204V86.04H175.204V85.04ZM175.204 82.736V81.736H174.204V82.736H175.204ZM195.724 82.736H196.724V81.736H195.724V82.736ZM195.724 85.04V86.04H196.724V85.04H195.724ZM189.388 85.544L188.681 84.8369L188.681 84.8369L189.388 85.544ZM188.956 109.304H187.956V111.755L189.671 110.003L188.956 109.304ZM205.516 92.384L206.231 93.0835L206.24 93.0741L206.249 93.0645L205.516 92.384ZM206.884 90.368L207.803 90.7619L207.803 90.7619L206.884 90.368ZM206.38 85.904L207.058 85.1692L207.058 85.1692L206.38 85.904ZM202.132 85.04H201.132V86.04H202.132V85.04ZM202.132 82.736V81.736H201.132V82.736H202.132ZM221.14 82.736H222.14V81.736H221.14V82.736ZM221.14 85.04V86.04H222.14V85.04H221.14ZM211.78 89.288L212.491 89.991L212.499 89.9828L211.78 89.288ZM199.684 101.528L198.973 100.825L198.451 101.353L198.806 102.006L199.684 101.528ZM214.372 128.528L215.259 128.067L215.255 128.058L215.251 128.05L214.372 128.528ZM216.46 131.048L215.93 131.896L215.95 131.908L215.97 131.92L216.46 131.048ZM222.148 131.696H223.148V130.696H222.148V131.696ZM222.148 134V135H223.148V134H222.148ZM200.404 134H199.404V135H200.404V134ZM200.404 131.696V130.696H199.404V131.696H200.404ZM206.596 131.264L207.196 132.064L207.226 132.041L207.255 132.017L206.596 131.264ZM207.028 129.248L206.058 129.491L206.062 129.507L206.067 129.523L207.028 129.248ZM206.668 128.384L205.786 128.854L205.822 128.922L205.868 128.984L206.668 128.384ZM194.932 106.352L195.815 105.882L195.176 104.683L194.221 105.649L194.932 106.352ZM188.956 112.4L188.245 111.697L187.956 111.989V112.4H188.956ZM195.724 131.696H196.724V130.696H195.724V131.696ZM195.724 134V135H196.724V134H195.724ZM175.204 134H174.204V135H175.204V134ZM175.204 132.696H180.388V130.696H175.204V132.696ZM180.388 132.696C181.19 132.696 181.976 132.495 182.553 131.917C183.131 131.339 183.332 130.554 183.332 129.752H181.332C181.332 130.246 181.209 130.433 181.139 130.503C181.069 130.573 180.882 130.696 180.388 130.696V132.696ZM183.332 129.752V86.984H181.332V129.752H183.332ZM183.332 86.984C183.332 86.1726 183.131 85.3435 182.479 84.7847L181.177 86.3033C181.197 86.3205 181.332 86.4514 181.332 86.984H183.332ZM182.587 84.8932C182.029 84.2413 181.2 84.04 180.388 84.04V86.04C180.921 86.04 181.052 86.1747 181.069 86.1948L182.587 84.8932ZM180.388 84.04H175.204V86.04H180.388V84.04ZM176.204 85.04V82.736H174.204V85.04H176.204ZM175.204 83.736H195.724V81.736H175.204V83.736ZM194.724 82.736V85.04H196.724V82.736H194.724ZM195.724 84.04H190.9V86.04H195.724V84.04ZM190.9 84.04C190.074 84.04 189.271 84.2472 188.681 84.8369L190.095 86.2511C190.178 86.1688 190.382 86.04 190.9 86.04V84.04ZM188.681 84.8369C188.115 85.403 187.956 86.2105 187.956 86.984H189.956C189.956 86.4135 190.085 86.261 190.095 86.2511L188.681 84.8369ZM187.956 86.984V109.304H189.956V86.984H187.956ZM189.671 110.003L206.231 93.0835L204.801 91.6845L188.241 108.605L189.671 110.003ZM206.249 93.0645C206.932 92.3288 207.46 91.5624 207.803 90.7619L205.965 89.9741C205.732 90.5176 205.348 91.0952 204.783 91.7035L206.249 93.0645ZM207.803 90.7619C208.153 89.9449 208.316 89.0392 208.316 88.064H206.316C206.316 88.8168 206.191 89.4471 205.965 89.9741L207.803 90.7619ZM208.316 88.064C208.316 86.9264 207.892 85.9382 207.058 85.1692L205.702 86.6388C206.117 87.0218 206.316 87.4736 206.316 88.064H208.316ZM207.058 85.1692C206.235 84.4094 205.219 84.04 204.076 84.04V86.04C204.757 86.04 205.277 86.2466 205.702 86.6388L207.058 85.1692ZM204.076 84.04H202.132V86.04H204.076V84.04ZM203.132 85.04V82.736H201.132V85.04H203.132ZM202.132 83.736H221.14V81.736H202.132V83.736ZM220.14 82.736V85.04H222.14V82.736H220.14ZM221.14 84.04H218.26V86.04H221.14V84.04ZM218.26 84.04C217.186 84.04 216.054 84.5119 214.904 85.2657C213.739 86.0297 212.457 87.1485 211.061 88.5932L212.499 89.9828C213.84 88.5955 215.006 87.5903 216 86.9383C217.011 86.2761 217.75 86.04 218.26 86.04V84.04ZM211.069 88.5851L198.973 100.825L200.395 102.231L212.491 89.9909L211.069 88.5851ZM198.806 102.006L213.494 129.006L215.251 128.05L200.563 101.05L198.806 102.006ZM213.485 128.989C214.154 130.275 214.954 131.286 215.93 131.896L216.99 130.2C216.431 129.85 215.839 129.181 215.259 128.067L213.485 128.989ZM215.97 131.92C216.954 132.473 218.258 132.696 219.772 132.696V130.696C218.407 130.696 217.502 130.487 216.95 130.176L215.97 131.92ZM219.772 132.696H222.148V130.696H219.772V132.696ZM221.148 131.696V134H223.148V131.696H221.148ZM222.148 133H200.404V135H222.148V133ZM201.404 134V131.696H199.404V134H201.404ZM200.404 132.696H205.228V130.696H200.404V132.696ZM205.228 132.696C205.95 132.696 206.622 132.495 207.196 132.064L205.996 130.464C205.803 130.609 205.563 130.696 205.228 130.696V132.696ZM207.255 132.017C207.78 131.557 208.172 130.943 208.172 130.184H206.172C206.172 130.193 206.18 130.299 205.938 130.511L207.255 132.017ZM208.172 130.184C208.172 129.786 208.106 129.38 207.99 128.973L206.067 129.523C206.142 129.788 206.172 130.006 206.172 130.184H208.172ZM207.998 129.005C207.888 128.565 207.728 128.13 207.468 127.784L205.868 128.984C205.897 129.022 205.976 129.163 206.058 129.491L207.998 129.005ZM207.551 127.914L195.815 105.882L194.05 106.822L205.786 128.854L207.551 127.914ZM194.221 105.649L188.245 111.697L189.667 113.103L195.643 107.055L194.221 105.649ZM187.956 112.4V129.752H189.956V112.4H187.956ZM187.956 129.752C187.956 130.554 188.157 131.339 188.735 131.917C189.313 132.495 190.098 132.696 190.9 132.696V130.696C190.406 130.696 190.22 130.573 190.149 130.503C190.079 130.433 189.956 130.246 189.956 129.752H187.956ZM190.9 132.696H195.724V130.696H190.9V132.696ZM194.724 131.696V134H196.724V131.696H194.724ZM195.724 133H175.204V135H195.724V133ZM176.204 134V131.696H174.204V134H176.204ZM231.786 131.696V130.696H230.786V131.696H231.786ZM238.41 85.544L237.651 86.1948L237.701 86.2532L237.759 86.3033L238.41 85.544ZM231.786 85.04H230.786V86.04H231.786V85.04ZM231.786 82.736V81.736H230.786V82.736H231.786ZM271.962 82.736L272.962 82.72L272.946 81.736H271.962V82.736ZM272.25 100.736V101.736H273.266L273.25 100.72L272.25 100.736ZM270.45 100.736H269.45V101.736H270.45V100.736ZM269.802 95.84L268.816 96.0044L268.817 96.0144L268.819 96.0243L269.802 95.84ZM267.426 89.648L266.59 90.1967L266.591 90.1976L267.426 89.648ZM245.97 85.544L245.263 84.8369L245.263 84.8369L245.97 85.544ZM245.538 106.352H244.538V107.352H245.538V106.352ZM256.338 102.608L255.424 102.203L255.42 102.211L255.417 102.218L256.338 102.608ZM257.994 94.616V93.616H256.994V94.616H257.994ZM259.866 94.616H260.866V93.616H259.866V94.616ZM259.866 120.392V121.392H260.866V120.392H259.866ZM257.994 120.392H256.994V121.392H257.994V120.392ZM256.338 112.4L255.417 112.79L255.42 112.797L255.424 112.805L256.338 112.4ZM245.538 108.656V107.656H244.538V108.656H245.538ZM263.25 130.76L262.852 129.842L262.852 129.842L263.25 130.76ZM266.922 127.88L267.711 128.494L267.724 128.478L267.736 128.461L266.922 127.88ZM269.298 122.84L268.343 122.544L268.343 122.544L269.298 122.84ZM270.594 117.368L271.583 117.513L271.584 117.509L270.594 117.368ZM271.026 114.128V113.128H270.121L270.031 114.028L271.026 114.128ZM272.826 114.128L273.825 114.171L273.87 113.128H272.826V114.128ZM271.962 134V135H272.92L272.961 134.043L271.962 134ZM231.786 134H230.786V135H231.786V134ZM231.786 132.696H236.97V130.696H231.786V132.696ZM236.97 132.696C237.772 132.696 238.557 132.495 239.135 131.917C239.713 131.339 239.914 130.554 239.914 129.752H237.914C237.914 130.246 237.791 130.433 237.721 130.503C237.651 130.573 237.464 130.696 236.97 130.696V132.696ZM239.914 129.752V86.984H237.914V129.752H239.914ZM239.914 86.984C239.914 86.1726 239.713 85.3435 239.061 84.7847L237.759 86.3033C237.779 86.3205 237.914 86.4514 237.914 86.984H239.914ZM239.169 84.8932C238.611 84.2413 237.781 84.04 236.97 84.04V86.04C237.503 86.04 237.634 86.1747 237.651 86.1948L239.169 84.8932ZM236.97 84.04H231.786V86.04H236.97V84.04ZM232.786 85.04V82.736H230.786V85.04H232.786ZM231.786 83.736H271.962V81.736H231.786V83.736ZM270.962 82.752L271.25 100.752L273.25 100.72L272.962 82.72L270.962 82.752ZM272.25 99.736H270.45V101.736H272.25V99.736ZM271.45 100.736C271.45 99.673 271.217 97.9586 270.785 95.6557L268.819 96.0243C269.251 98.3294 269.45 99.879 269.45 100.736H271.45ZM270.788 95.6756C270.383 93.2438 269.543 91.0468 268.261 89.0984L266.591 90.1976C267.709 91.8972 268.453 93.8282 268.816 96.0044L270.788 95.6756ZM268.262 89.0993C266.063 85.7481 262.918 84.04 258.93 84.04V86.04C262.238 86.04 264.757 87.4039 266.59 90.1967L268.262 89.0993ZM258.93 84.04H247.482V86.04H258.93V84.04ZM247.482 84.04C246.656 84.04 245.853 84.2472 245.263 84.8369L246.677 86.2511C246.759 86.1688 246.964 86.04 247.482 86.04V84.04ZM245.263 84.8369C244.697 85.403 244.538 86.2105 244.538 86.984H246.538C246.538 86.4135 246.667 86.261 246.677 86.2511L245.263 84.8369ZM244.538 86.984V106.352H246.538V86.984H244.538ZM245.538 107.352H251.082V105.352H245.538V107.352ZM251.082 107.352C252.484 107.352 253.744 106.991 254.812 106.23C255.874 105.474 256.677 104.372 257.259 102.998L255.417 102.218C254.943 103.34 254.343 104.11 253.652 104.602C252.968 105.089 252.128 105.352 251.082 105.352V107.352ZM257.253 103.013C258.415 100.384 258.994 97.5819 258.994 94.616H256.994C256.994 97.314 256.469 99.8397 255.424 102.203L257.253 103.013ZM257.994 95.616H259.866V93.616H257.994V95.616ZM258.866 94.616V120.392H260.866V94.616H258.866ZM259.866 119.392H257.994V121.392H259.866V119.392ZM258.994 120.392C258.994 117.426 258.415 114.624 257.253 111.995L255.424 112.805C256.469 115.168 256.994 117.694 256.994 120.392H258.994ZM257.259 112.01C256.677 110.636 255.874 109.534 254.812 108.778C253.744 108.017 252.484 107.656 251.082 107.656V109.656C252.128 109.656 252.968 109.919 253.652 110.406C254.343 110.898 254.943 111.668 255.417 112.79L257.259 112.01ZM251.082 107.656H245.538V109.656H251.082V107.656ZM244.538 108.656V129.752H246.538V108.656H244.538ZM244.538 129.752C244.538 130.554 244.739 131.339 245.317 131.917C245.895 132.495 246.68 132.696 247.482 132.696V130.696C246.988 130.696 246.801 130.573 246.731 130.503C246.661 130.433 246.538 130.246 246.538 129.752H244.538ZM247.482 132.696H259.002V130.696H247.482V132.696ZM259.002 132.696C260.547 132.696 262.098 132.349 263.648 131.678L262.852 129.842C261.522 130.419 260.241 130.696 259.002 130.696V132.696ZM263.648 131.678C265.249 130.984 266.605 129.916 267.711 128.494L266.133 127.266C265.223 128.436 264.131 129.288 262.852 129.842L263.648 131.678ZM267.736 128.461C268.772 127.01 269.606 125.227 270.253 123.136L268.343 122.544C267.742 124.485 266.992 126.062 266.108 127.299L267.736 128.461ZM270.253 123.136C270.889 121.083 271.334 119.208 271.583 117.513L269.605 117.223C269.374 118.792 268.956 120.565 268.343 122.544L270.253 123.136ZM271.584 117.509C271.823 115.835 271.971 114.733 272.021 114.228L270.031 114.028C269.986 114.483 269.845 115.541 269.604 117.227L271.584 117.509ZM271.026 115.128H272.826V113.128H271.026V115.128ZM271.827 114.085L270.963 133.957L272.961 134.043L273.825 114.171L271.827 114.085ZM271.962 133H231.786V135H271.962V133ZM232.786 134V131.696H230.786V134H232.786ZM293.449 131.696V130.696H292.449V131.696H293.449ZM301.873 85.328L301.114 85.9788L301.139 86.0079L301.166 86.0351L301.873 85.328ZM289.921 89.432L289.109 88.8483L289.105 88.8545L289.921 89.432ZM287.113 96.848L288.1 97.0098L288.1 97.0072L287.113 96.848ZM286.393 103.328V104.328H287.393V103.328H286.393ZM284.377 103.328L283.377 103.3L283.349 104.328H284.377V103.328ZM284.953 82.736V81.736H283.981L283.953 82.708L284.953 82.736ZM326.281 82.736L327.281 82.708L327.253 81.736H326.281V82.736ZM326.857 103.328V104.328H327.885L327.857 103.3L326.857 103.328ZM324.841 103.328H323.841V104.328H324.841V103.328ZM324.121 96.848L323.134 97.0072L323.134 97.0098L324.121 96.848ZM321.313 89.432L322.129 88.8545L322.125 88.8484L321.313 89.432ZM309.361 85.328L310.068 86.0351L310.095 86.0079L310.12 85.9788L309.361 85.328ZM317.785 131.696H318.785V130.696H317.785V131.696ZM317.785 134V135H318.785V134H317.785ZM293.449 134H292.449V135H293.449V134ZM293.449 132.696H300.361V130.696H293.449V132.696ZM300.361 132.696C301.163 132.696 301.948 132.495 302.526 131.917C303.104 131.339 303.305 130.554 303.305 129.752H301.305C301.305 130.246 301.182 130.433 301.112 130.503C301.042 130.573 300.855 130.696 300.361 130.696V132.696ZM303.305 129.752V86.768H301.305V129.752H303.305ZM303.305 86.768C303.305 85.9945 303.146 85.187 302.58 84.6209L301.166 86.0351C301.176 86.045 301.305 86.1975 301.305 86.768H303.305ZM302.632 84.6772C302.062 84.0124 301.194 83.824 300.361 83.824V85.824C300.968 85.824 301.108 85.9716 301.114 85.9788L302.632 84.6772ZM300.361 83.824H297.769V85.824H300.361V83.824ZM297.769 83.824C294.342 83.824 291.452 85.5883 289.109 88.8484L290.733 90.0156C292.806 87.1317 295.148 85.824 297.769 85.824V83.824ZM289.105 88.8545C287.605 90.9743 286.624 93.599 286.126 96.6888L288.1 97.0072C288.562 94.145 289.453 91.8257 290.737 90.0095L289.105 88.8545ZM286.126 96.6862C285.645 99.6219 285.393 101.85 285.393 103.328H287.393C287.393 102.022 287.621 99.9301 288.1 97.0098L286.126 96.6862ZM286.393 102.328H284.377V104.328H286.393V102.328ZM285.377 103.356L285.953 82.764L283.953 82.708L283.377 103.3L285.377 103.356ZM284.953 83.736H326.281V81.736H284.953V83.736ZM325.281 82.764L325.857 103.356L327.857 103.3L327.281 82.708L325.281 82.764ZM326.857 102.328H324.841V104.328H326.857V102.328ZM325.841 103.328C325.841 101.85 325.589 99.6219 325.108 96.6862L323.134 97.0098C323.613 99.9301 323.841 102.022 323.841 103.328H325.841ZM325.108 96.6888C324.61 93.599 323.629 90.9743 322.129 88.8545L320.497 90.0095C321.781 91.8257 322.672 94.145 323.134 97.0072L325.108 96.6888ZM322.125 88.8484C319.782 85.5883 316.892 83.824 313.465 83.824V85.824C316.086 85.824 318.428 87.1317 320.501 90.0156L322.125 88.8484ZM313.465 83.824H310.873V85.824H313.465V83.824ZM310.873 83.824C310.04 83.824 309.172 84.0124 308.602 84.6772L310.12 85.9788C310.126 85.9716 310.266 85.824 310.873 85.824V83.824ZM308.654 84.6209C308.088 85.187 307.929 85.9945 307.929 86.768H309.929C309.929 86.1975 310.058 86.045 310.068 86.0351L308.654 84.6209ZM307.929 86.768V129.752H309.929V86.768H307.929ZM307.929 129.752C307.929 130.554 308.13 131.339 308.708 131.917C309.286 132.495 310.071 132.696 310.873 132.696V130.696C310.379 130.696 310.192 130.573 310.122 130.503C310.052 130.433 309.929 130.246 309.929 129.752H307.929ZM310.873 132.696H317.785V130.696H310.873V132.696ZM316.785 131.696V134H318.785V131.696H316.785ZM317.785 133H293.449V135H317.785V133ZM294.449 134V131.696H292.449V134H294.449Z" fill="#FBFBFB"/>
</svg>
